<?xml version="1.0" encoding="utf-8"?>
<!-- Generator: Adobe Illustrator 23.1.1, SVG Export Plug-In . SVG Version: 6.00 Build 0)  -->
<svg version="1.1" id="Layer_1" focusable="false" xmlns="http://www.w3.org/2000/svg" xmlns:xlink="http://www.w3.org/1999/xlink"
	 x="0px" y="0px" viewBox="0 0 40 40" style="enable-background:new 0 0 40 40;" xml:space="preserve">
<style type="text/css">
	.st0{fill:#FFFFFF;}
</style>
<title>Bootstrap</title>
<g>
	<path class="st0" d="M22,21.2h-6.4v6.4H22c1.1,0,1.9-0.3,2.5-0.9c0.6-0.6,0.9-1.4,0.9-2.4s-0.3-1.8-0.9-2.3
		C23.9,21.4,23.1,21.2,22,21.2z"/>
	<path class="st0" d="M31.8,2.4H8.3C5,2.4,2.4,5,2.4,8.3v23.4c0,3.3,2.7,5.9,5.9,5.9h23.4c3.3,0,5.9-2.7,5.9-5.9h0.1V8.3
		C37.7,5,35,2.4,31.8,2.4z M28.6,27.3c-0.3,0.7-0.7,1.3-1.4,1.8c-0.6,0.5-1.4,0.9-2.4,1.2s-2.1,0.4-3.4,0.4H12V10.1h10
		c1.8,0,3.3,0.4,4.4,1.3c1.1,0.8,1.7,2.1,1.7,3.8c0,1-0.3,1.9-0.8,2.7c-0.5,0.7-1.2,1.3-2.2,1.7v0.1c1.3,0.3,2.2,0.9,2.9,1.8
		c0.6,0.9,1,2.1,1,3.5C29,25.8,28.9,26.6,28.6,27.3z"/>
	<path class="st0" d="M23.7,17.9c0.6-0.5,0.9-1.2,0.9-2.1c0-1-0.3-1.8-0.8-2.2c-0.5-0.4-1.3-0.6-2.2-0.6h-5.9l-0.1,5.6h5.9
		C22.4,18.6,23.1,18.4,23.7,17.9z"/>
</g>
</svg>
