<?xml version="1.0" encoding="utf-8"?>
<!-- Generator: Adobe Illustrator 23.1.1, SVG Export Plug-In . SVG Version: 6.00 Build 0)  -->
<svg version="1.1"
	 id="svg3476" xmlns:cc="http://creativecommons.org/ns#" xmlns:dc="http://purl.org/dc/elements/1.1/" xmlns:inkscape="http://www.inkscape.org/namespaces/inkscape" xmlns:rdf="http://www.w3.org/1999/02/22-rdf-syntax-ns#" xmlns:sodipodi="http://sodipodi.sourceforge.net/DTD/sodipodi-0.dtd" xmlns:svg="http://www.w3.org/2000/svg"
	 xmlns="http://www.w3.org/2000/svg" xmlns:xlink="http://www.w3.org/1999/xlink" x="0px" y="0px" viewBox="0 0 40 40"
	 style="enable-background:new 0 0 40 40;" xml:space="preserve">
<style type="text/css">
	.st0{fill:#FFFFFF;}
</style>
<sodipodi:namedview  bordercolor="#666666" borderopacity="1.0" fit-margin-bottom="0" fit-margin-left="0" fit-margin-right="0" fit-margin-top="0" id="base" inkscape:current-layer="layer1" inkscape:cx="181.367" inkscape:cy="256" inkscape:document-units="px" inkscape:pageopacity="0.0" inkscape:pageshadow="2" inkscape:window-height="704" inkscape:window-maximized="1" inkscape:window-width="1366" inkscape:window-x="0" inkscape:window-y="27" inkscape:zoom="0.35" pagecolor="#ffffff" showgrid="false">
	</sodipodi:namedview>
<g id="layer1" transform="translate(-193.633,-276.3622)" inkscape:groupmode="layer" inkscape:label="Calque 1">
	<g id="g3013" transform="translate(119,276.3622)">
		<path class="st0" d="M79.7,3.2l2.8,31l12.4,3.4l12.5-3.5l2.8-31H79.7z M105,32.2L94.9,35l-10.1-2.8L82.5,5.7h12.4h12.4L105,32.2z"
			/>
		<polygon id="polygon2993" class="st0" points="86,17.2 86.4,21 94.9,21 94.9,17.2 		"/>
		<polygon id="polygon2995" class="st0" points="94.9,9.5 94.9,9.5 85.3,9.5 85.7,13.3 94.9,13.3 		"/>
		<polygon id="polygon2997" class="st0" points="94.9,31.1 94.9,27.1 94.9,27.1 90.6,26 90.4,22.9 88.3,22.9 86.5,22.9 87.1,28.9 
			94.9,31.1 		"/>
		<polygon id="polygon3005" class="st0" points="99.6,21 99.1,26 94.9,27.1 94.9,31.1 102.7,28.9 102.7,28.3 103.6,18.2 103.7,17.2 
			104.4,9.5 94.9,9.5 94.9,13.3 100.2,13.3 99.9,17.2 94.9,17.2 94.9,21 		"/>
	</g>
</g>
</svg>
