<?xml version="1.0" encoding="utf-8"?>
<!-- Generator: Adobe Illustrator 23.1.1, SVG Export Plug-In . SVG Version: 6.00 Build 0)  -->
<svg version="1.1" id="Layer_1" xmlns="http://www.w3.org/2000/svg" xmlns:xlink="http://www.w3.org/1999/xlink" x="0px" y="0px"
	 viewBox="0 0 40 40" style="enable-background:new 0 0 40 40;" xml:space="preserve">
<style type="text/css">
	.st0{fill:#FFFFFF;}
</style>
<title>HTML5 Logo</title>
<path class="st0" d="M4,2.7l2.9,32.6L20,39l13.1-3.6L36,2.7H4z M30.6,33.2l-10.6,3l-10.6-3L6.9,5.4H20h13.1L30.6,33.2z"/>
<path class="st0" d="M10,9.4h10v4h-5.7l0.4,4.1H20v4h-9 M11.2,23.5h4l0.3,3.2l4.5,1.2v4.2l-8.2-2.3"/>
<path class="st0" d="M30,9.4H20v4h9.7 M29.3,17.5H20v4h4.9l-0.5,5.2L20,27.9V32l8.2-2.3"/>
</svg>
