<?xml version="1.0" encoding="utf-8"?>
<!-- Generator: Adobe Illustrator 23.1.1, SVG Export Plug-In . SVG Version: 6.00 Build 0)  -->
<svg version="1.1" id="Capa_1" xmlns="http://www.w3.org/2000/svg" xmlns:xlink="http://www.w3.org/1999/xlink" x="0px" y="0px"
	 viewBox="0 0 40 40" style="enable-background:new 0 0 40 40;" xml:space="preserve">
<style type="text/css">
	.st0{fill:#FFFFFF;}
</style>
<g>
	<path class="st0" d="M1.5,2v36h36.9V2H1.5z M3.1,3.5h33.8v32.9H3.1V3.5z"/>
	<path class="st0" d="M14.4,22.4L13.1,27c0,0.1-0.1,0.2-0.2,0.2h-2.3c-0.2,0-0.2,0-0.2-0.2l4.4-15.3c0.1-0.3,0.1-0.5,0.2-1.3
		c0-0.1,0-0.2,0.1-0.2h3.2c0.1,0,0.2,0,0.2,0.2L23.4,27c0,0.1,0,0.2-0.1,0.2h-2.6c-0.1,0-0.2,0-0.2-0.1l-1.3-4.6H14.4L14.4,22.4z
		 M18.6,19.9c-0.4-1.7-1.4-5.4-1.8-7.2h0c-0.3,1.8-1.1,4.8-1.8,7.2H18.6z M25.6,11.3c0-1,0.7-1.6,1.6-1.6c0.9,0,1.6,0.6,1.6,1.6
		c0,1-0.7,1.6-1.6,1.6C26.2,12.9,25.6,12.4,25.6,11.3L25.6,11.3z M25.7,14.8c0-0.1,0-0.2,0.2-0.2h2.4c0.1,0,0.2,0,0.2,0.2V27
		c0,0.1,0,0.2-0.2,0.2H26c-0.2,0-0.2-0.1-0.2-0.2L25.7,14.8L25.7,14.8z"/>
</g>
</svg>
