<?xml version="1.0" encoding="utf-8"?>
<!-- Generator: Adobe Illustrator 23.1.1, SVG Export Plug-In . SVG Version: 6.00 Build 0)  -->
<svg version="1.1" id="Livello_1" xmlns="http://www.w3.org/2000/svg" xmlns:xlink="http://www.w3.org/1999/xlink" x="0px" y="0px"
	 viewBox="0 0 40 40" style="enable-background:new 0 0 40 40;" xml:space="preserve">
<style type="text/css">
	.st0{fill:#FFFFFF;}
</style>
<g>
	<path class="st0" d="M37.6,2.8v34.4H2.4V2.8H37.6z M3.9,4.3v31.4h32.3V4.3H3.9z M15.3,26.6V10.8c0-0.1,0-0.1,0-0.1c0,0-0.1,0-0.1,0
		h-2.3c-0.1,0-0.1,0-0.1,0c0,0,0,0.1,0,0.1v15.8c0,0,0,0.1,0,0.1s0.1,0,0.1,0h2.2c0.1,0,0.1,0,0.2,0C15.3,26.8,15.3,26.7,15.3,26.6
		L15.3,26.6z M17.8,20.9c0,2.1,0.5,3.6,1.6,4.6c1.1,1,2.4,1.5,4,1.5c0.6,0,1.3-0.1,2-0.2c0.6-0.1,1.3-0.4,1.9-0.7c0,0,0.1,0,0.1-0.1
		c0,0,0-0.1,0-0.1c0-0.3-0.1-0.5-0.1-0.8c0-0.2,0-0.5,0-0.7V10.8c0,0,0-0.1,0-0.1c0,0-0.1,0-0.1,0h-2.4c0,0,0,0-0.1,0
		c0,0,0,0.1,0,0.1v3.9c-0.1,0-0.3,0-0.4,0c-0.1,0-0.2,0-0.4,0c-1.9,0-3.3,0.6-4.4,1.8C18.4,17.7,17.8,19.2,17.8,20.9L17.8,20.9z
		 M24.7,17.1v7.5c-0.1,0.1-0.3,0.1-0.5,0.1c-0.2,0-0.4,0-0.6,0c-0.9,0-1.6-0.3-2.2-0.9c-0.6-0.6-0.9-1.6-0.9-3
		c0-1.2,0.3-2.2,0.9-2.9s1.4-1,2.3-1c0.2,0,0.3,0,0.5,0C24.4,17,24.6,17,24.7,17.1L24.7,17.1z"/>
</g>
</svg>
