<?xml version="1.0" encoding="utf-8"?>
<!-- Generator: Adobe Illustrator 23.1.1, SVG Export Plug-In . SVG Version: 6.00 Build 0)  -->
<svg version="1.1" xmlns="http://www.w3.org/2000/svg" xmlns:xlink="http://www.w3.org/1999/xlink" x="0px" y="0px"
	 viewBox="0 0 40 40" style="enable-background:new 0 0 40 40;" xml:space="preserve">
<style type="text/css">
	.st0{fill:#FFFFFF;}
</style>
<g id="Layer_1">
	<g id="code_x5F_html5">
	</g>
	<g>
		<path class="st0" d="M20.4,2.5H5l2.9,31.4l12.6,3.6L33,33.9l2.9-31.4H20.4z M30.6,31.9l-10.1,2.9v0l0,0l0,0v0l-10.1-2.9L7.8,5
			h12.6h0.1h12.6L30.6,31.9z"/>
		<polygon class="st0" points="28.5,8.9 12.9,8.9 11.8,20.7 11.8,20.6 25.1,20.6 24.7,25.6 20.4,26.8 16.1,25.5 15.9,22.5 12,22.5 
			12.5,28.5 20.4,30.8 28.3,28.5 29.4,16.7 15.3,16.7 15.5,12.8 25.3,12.8 25.4,15 29.4,15 		"/>
		<g>
			<path class="st0" d="M20.4,8.9h-7.6l-1.1,11.8l0-0.1h8.6v-3.8h-4.6l0.2-3.9h4.4V8.9z M15.9,22.5H12l0.6,6l7.9,2.2v-4l-4.3-1.2
				L15.9,22.5z"/>
		</g>
	</g>
</g>
<g id="Layer_2">
</g>
</svg>
