<?xml version="1.0" encoding="utf-8"?>
<!-- Generator: Adobe Illustrator 23.1.1, SVG Export Plug-In . SVG Version: 6.00 Build 0)  -->
<svg version="1.1" id="Capa_1" xmlns="http://www.w3.org/2000/svg" xmlns:xlink="http://www.w3.org/1999/xlink" x="0px" y="0px"
	 viewBox="0 0 40 40" style="enable-background:new 0 0 40 40;" xml:space="preserve">
<style type="text/css">
	.st0{fill:#FFFFFF;}
</style>
<path class="st0" d="M1.7,2.2v35.7h36.6V2.2H1.7z M3.2,3.7h33.5v32.6H3.2V3.7z M10.5,10.5c0-0.1,0.2-0.2,0.3-0.2
	c1,0,2.4-0.1,3.9-0.1c4.2,0,5.9,2.3,5.9,5.3c0,3.9-2.8,5.5-6.2,5.5c-0.6,0-0.8,0-1.2,0v5.9c0,0.1,0,0.2-0.2,0.2h-2.3
	c-0.1,0-0.2,0-0.2-0.2V10.5L10.5,10.5z M13.3,18.6c0.4,0,0.6,0,1.2,0c1.8,0,3.5-0.6,3.5-3c0-1.9-1.2-2.9-3.2-2.9c-0.6,0-1.2,0-1.5,0
	L13.3,18.6L13.3,18.6z M26.4,16.8c-1.2,0-1.6,0.6-1.6,1.1c0,0.5,0.3,0.9,1.9,1.8c2.4,1.2,3.1,2.3,3.1,3.9c0,2.4-1.9,3.7-4.4,3.7
	c-1.3,0-2.5-0.3-3.1-0.7c-0.1,0-0.1-0.1-0.1-0.2v-2.2c0-0.2,0.1-0.2,0.2-0.1c1,0.6,2.1,0.9,3.1,0.9c1.2,0,1.7-0.5,1.7-1.2
	c0-0.5-0.4-1-1.9-1.8c-2.2-1-3.1-2.1-3.1-3.8c0-2,1.5-3.6,4.2-3.6c1.3,0,2.2,0.2,2.7,0.4c0.1,0.1,0.2,0.2,0.2,0.3v2.1
	c0,0.1-0.1,0.2-0.2,0.2C28.4,17.1,27.4,16.8,26.4,16.8L26.4,16.8z"/>
</svg>
