<?xml version="1.0" encoding="utf-8"?>
<!-- Generator: Adobe Illustrator 23.1.1, SVG Export Plug-In . SVG Version: 6.00 Build 0)  -->
<svg version="1.1"
	 id="svg2" xmlns:cc="http://creativecommons.org/ns#" xmlns:dc="http://purl.org/dc/elements/1.1/" xmlns:rdf="http://www.w3.org/1999/02/22-rdf-syntax-ns#" xmlns:svg="http://www.w3.org/2000/svg"
	 xmlns="http://www.w3.org/2000/svg" xmlns:xlink="http://www.w3.org/1999/xlink" x="0px" y="0px" viewBox="0 0 40 40"
	 style="enable-background:new 0 0 40 40;" xml:space="preserve">
<style type="text/css">
	.st0{fill:#FFFFFF;}
</style>
<path id="path3486" class="st0" d="M8,22.9c1.1,0,1.9-0.2,2.4-0.6c0.5-0.4,0.8-1.1,1-2c0.2-0.9,0.1-1.5-0.2-1.8
	c-0.3-0.3-1-0.5-1.9-0.5H7.5l-0.9,4.9H8z M2.4,28.9c-0.1,0-0.2,0-0.2-0.1c-0.1-0.1-0.1-0.1-0.1-0.2l2.5-13.1c0-0.1,0.1-0.2,0.3-0.2
	h5.4c1.7,0,3,0.5,3.8,1.4c0.8,0.9,1,2.2,0.7,3.9c-0.1,0.7-0.3,1.3-0.6,1.8c-0.3,0.6-0.7,1.1-1.2,1.5c-0.6,0.6-1.2,1-2,1.2
	c-0.7,0.2-1.6,0.4-2.7,0.4H6.1l-0.6,3.3c0,0.1-0.1,0.2-0.3,0.2L2.4,28.9L2.4,28.9z"/>
<path id="path3494" class="st0" d="M21.5,25.5c-0.1,0-0.2,0-0.2-0.1c0-0.1-0.1-0.1-0.1-0.2l1.1-5.8c0.1-0.6,0.1-0.9-0.1-1.1
	C22.1,18.1,21.9,18,21,18h-2l-1.4,7.3c0,0.1-0.1,0.2-0.3,0.2h-2.8c-0.1,0-0.2,0-0.2-0.1c0-0.1-0.1-0.1-0.1-0.2L16.9,12
	c0-0.1,0.1-0.2,0.3-0.2h2.8c0.1,0,0.2,0,0.2,0.1c0,0.1,0.1,0.1,0.1,0.2l-0.6,3.2h2.1c1.6,0,2.7,0.3,3.4,0.9c0.7,0.6,0.9,1.6,0.6,2.9
	l-1.2,6.1c0,0.1-0.1,0.2-0.3,0.2H21.5L21.5,25.5z"/>
<path id="path3502" class="st0" d="M30.7,22.9c1.1,0,1.9-0.2,2.5-0.6c0.5-0.4,0.9-1.1,1.1-2c0.2-0.9,0.1-1.5-0.2-1.8
	c-0.3-0.3-1-0.5-2-0.5h-1.8l-1,4.9H30.7z M24.9,28.9c-0.1,0-0.2,0-0.2-0.1c-0.1-0.1-0.1-0.1-0.1-0.2l2.6-13.1c0-0.1,0.1-0.2,0.3-0.2
	h5.6c1.8,0,3.1,0.5,3.9,1.4c0.8,0.9,1.1,2.2,0.8,3.9c-0.1,0.7-0.4,1.3-0.7,1.8c-0.3,0.6-0.7,1.1-1.2,1.5c-0.6,0.6-1.3,1-2,1.2
	c-0.7,0.2-1.7,0.4-2.8,0.4h-2.3l-0.6,3.3c0,0.1-0.1,0.2-0.3,0.2L24.9,28.9L24.9,28.9z"/>
</svg>
