<?xml version="1.0" encoding="utf-8"?>
<!-- Generator: Adobe Illustrator 23.1.1, SVG Export Plug-In . SVG Version: 6.00 Build 0)  -->
<svg version="1.1" id="Layer_1" xmlns="http://www.w3.org/2000/svg" xmlns:xlink="http://www.w3.org/1999/xlink" x="0px" y="0px"
	 viewBox="0 0 2500 2246" style="enable-background:new 0 0 2500 2246;" xml:space="preserve">
<style type="text/css">
	.st0{fill:none;stroke:#BBE5EE;stroke-width:26;stroke-miterlimit:10;}
	.st1{fill:#BBE5EE;}
	.st2{fill:none;stroke:#53C1DE;stroke-width:21;stroke-miterlimit:10;}
	.st3{fill:none;stroke:#078095;stroke-width:3;stroke-miterlimit:10;}
	.st4{fill:#078095;}
	.st5{fill:#FFFFFF;}
</style>
<path class="st0" d="M1840.4,595.8L1840.4,595.8c-24.8-1.3-49.6-1.9-74.4-2c-0.6-16.6-1.6-33-2.8-49.6
	c-20.2-265.7-112-458.2-246.5-491.6c-128.9-32.1-290.9,86.3-428,297.8c-13.5,20.8-26.5,42.1-38.9,63.6
	c-14.7-7.7-29.5-15.2-44.5-22.4c-240.3-115.1-452.9-131.8-549-32c-92.2,95.7-70.5,295.1,44.2,519.5c11.4,22.2,23.4,44.2,35.8,65.8
	c-25,15.5-48.9,31.3-71.5,47.2c-202.2,142.8-310.3,306.6-273.8,433.9c37.7,131.5,229.4,219.2,486.3,232c20.8,1,41.6,1.5,62.5,1.5
	c0.9,26.9,2.6,53.8,5.1,80.5c22.6,246.4,110.5,421.9,239,453.9c132.7,33,304.5-89.3,443.9-305.3c11-17.1,21.9-35,32.5-53.4
	c23.8,12.6,47.9,24.5,72.3,35.9c224.7,103.5,420.7,115,512.6,19.7c94.9-98.5,74.7-308.3-42.8-537.1c-9-17.5-18.7-35.1-29-53.1
	c12.3-7.8,24.3-15.7,35.9-23.6c220.1-150.3,340.9-325.9,302.7-459.1C2275.6,690.1,2092.1,609,1840.4,595.8z M1167.8,401.7
	c117.5-181.2,248.5-276.9,326.1-257.6l0,0c82.8,20.6,157.7,177.9,175.2,407.3c1.2,15,1.9,29.9,2.6,44.9
	c-93.8,4.9-193.6,17.2-296.4,36.5c-82-66.3-164.1-124.4-243.4-172.4C1143.2,440.6,1155.3,421,1167.8,401.7z M848.6,1355.2
	c29.8,31.5,60.3,62.4,91.7,92.5c31.9,30.7,64.5,60.7,97.8,89.8c-71.7,12.1-140.2,20.4-204.5,24.6
	C834.8,1496.2,839.9,1426.8,848.6,1355.2z M787.3,1142.1c-44.3-55-84.5-110.1-120-164.2c56.7-30.9,118-60.5,182.8-88.1
	c-12.4,41.5-23.9,83.4-34.3,125.5C805.3,1057.2,795.8,1099.6,787.3,1142.1z M866.1,1234.8c11.2-66.1,24.9-131.8,41.2-196.9l0,0
	c16.2-65.1,34.8-129.5,55.9-193.2c61.7-22.9,125.7-43.9,191-62.7c65.7-18.8,131.2-34.9,195.6-48.2c51.2,42.8,100.9,87.5,149,133.8
	c48.3,46.5,95,94.5,140.2,143.9c-11.7,66.4-25.6,132.4-41.9,197.8l0,0c-16.1,65.1-34.3,129.5-54.7,193.4
	c-61.7,22.6-126,43.5-192.3,62.5c-66,18.9-130.8,35.3-193.8,49c-51.9-42.9-102.3-87.9-150.8-134.8
	C957.3,1333.3,910.7,1284.9,866.1,1234.8z M1688.6,1232.4c10.7-43.1,20.5-86.5,29.3-130l0,0c46.9,56.5,88.8,112.2,124.7,166.2
	c-57.5,31.7-120.7,62.1-188.2,90.5C1666.7,1317,1678,1274.8,1688.6,1232.4z M1656.9,892.8c-30.3-31.6-61.2-62.6-92.7-92.8l0,0
	c-31-29.9-62.6-59.1-94.9-87.5c70.1-10.8,138.3-18.1,203.1-21.6C1670.9,754.5,1665.7,822.3,1656.9,892.8z M1086.9,543.5
	c54.8,33.3,111.1,71.9,168,114.9c-84.7,20-168.3,44-250.7,71.8C1029.8,664,1057.5,601.5,1086.9,543.5z M524.2,425.1
	c59.2-61.4,232.9-47.9,440.4,51.6c13.3,6.4,26.7,13.2,40.3,20.3c-42.7,83.8-81.9,176.6-116.6,275.4
	c-97.1,37.8-188.3,80.1-270.4,125.2c-11.6-20.1-22.7-40.5-33.4-61.2l0,0C486.2,644.1,468.6,482.8,524.2,425.1z M739.2,1565.3
	c-19,0-38.1-0.4-57.1-1.4c-113.6-5.7-212.1-27.2-285.1-60.5c-65.5-30-105-67.1-115.4-103.4c-22.1-77.2,64.8-208.7,237.6-330.8
	c21.7-15.3,43.8-29.9,66.4-43.9c51.3,78.7,112,159,180.2,238.3C749.9,1368.4,740.9,1470.2,739.2,1565.3z M1348.6,1837.4
	c-61.7,95.5-129.5,170.2-194.8,216.7l0,0c-58.7,41.8-110.5,57.4-147.1,48.2c-78-19.4-148.5-160.4-167.9-371.1
	c-2.3-24.9-3.8-49.9-4.7-74.9c92.4-5.7,192.5-19.4,297.7-40.6c82.3,65.8,165.6,124.1,246.6,172.7
	C1368.9,1805.2,1358.9,1821.5,1348.6,1837.4z M1422.8,1705.4c-56.3-34-113.7-73-171.5-116.1c41-10,82.7-21.1,124.8-33.2
	c43.3-12.4,85.7-25.6,127.2-39.6C1478.1,1584.5,1451.1,1647.8,1422.8,1705.4z M2009.2,1673.7c6.9,71.7-5.5,124.4-31.6,151.6
	c-55.7,57.9-213.2,48.5-405.3-39.9c-22-10.1-44.5-21.3-67.3-33.3c41-82.5,78.9-175.7,113.1-276.8c99.9-38.5,192.6-81.1,274.5-126.7
	c9.3,16.3,18.1,32.3,26.2,48.1l0,0C1970.6,1497.8,2001.4,1593.8,2009.2,1673.7z M1956.3,1199.1L1956.3,1199.1
	c-10.5,7.2-21.4,14.3-32.5,21.4c-51.2-77.3-113.3-157.3-184.4-237.9c16.2-103.3,25.4-202.4,27.3-294.4c23.5,0,46.5,0.6,68.8,1.8
	c215.7,11.3,364,76.8,386.1,153.8C2245.1,925.8,2146.3,1069.3,1956.3,1199.1z"/>
<path class="st1" d="M1197.3,932.5c104.6-30,213.7,30.5,243.7,135.1s-30.5,213.7-135.1,243.7s-213.7-30.5-243.7-135.1
	S1092.7,962.5,1197.3,932.5"/>
<path class="st2" d="M1472.3,1074.9"/>
<path class="st3" d="M1840.4,595.8L1840.4,595.8c-24.8-1.3-49.6-1.9-74.4-2c-0.6-16.6-1.6-33-2.8-49.6
	c-20.2-265.7-112-458.2-246.5-491.6c-128.9-32.1-290.9,86.3-428,297.8c-13.5,20.8-26.5,42.1-38.9,63.6
	c-14.7-7.7-29.5-15.2-44.5-22.4c-240.3-115.1-452.9-131.8-549-32c-92.2,95.7-70.5,295.1,44.2,519.5c11.4,22.2,23.4,44.2,35.8,65.8
	c-25,15.5-48.9,31.3-71.5,47.2c-202.2,142.8-310.3,306.6-273.8,433.9c37.7,131.5,229.4,219.2,486.3,232c20.8,1,41.6,1.5,62.5,1.5
	c0.9,26.9,2.6,53.8,5.1,80.5c22.6,246.4,110.5,421.9,239,453.9c132.7,33,304.5-89.3,443.9-305.3c11-17.1,21.9-35,32.5-53.4
	c23.8,12.6,47.9,24.5,72.3,35.9c224.7,103.5,420.7,115,512.6,19.7c94.9-98.5,74.7-308.3-42.8-537.1c-9-17.5-18.7-35.1-29-53.1
	c12.3-7.8,24.3-15.7,35.9-23.6c220.1-150.3,340.9-325.9,302.7-459.1C2275.6,690.1,2092.1,609,1840.4,595.8z M1167.8,401.7
	c117.5-181.2,248.5-276.9,326.1-257.6l0,0c82.8,20.6,157.7,177.9,175.2,407.3c1.2,15,1.9,29.9,2.6,44.9
	c-93.8,4.9-193.6,17.2-296.4,36.5c-82-66.3-164.1-124.4-243.4-172.4C1143.2,440.6,1155.3,421,1167.8,401.7z M848.6,1355.2
	c29.8,31.5,60.3,62.4,91.7,92.5c31.9,30.7,64.5,60.7,97.8,89.8c-71.7,12.1-140.2,20.4-204.5,24.6
	C834.8,1496.2,839.9,1426.8,848.6,1355.2z M787.3,1142.1c-44.3-55-84.5-110.1-120-164.2c56.7-30.9,118-60.5,182.8-88.1
	c-12.4,41.5-23.9,83.4-34.3,125.5C805.3,1057.2,795.8,1099.6,787.3,1142.1z M866.1,1234.8c11.2-66.1,24.9-131.8,41.2-196.9l0,0
	c16.2-65.1,34.8-129.5,55.9-193.2c61.7-22.9,125.7-43.9,191-62.7c65.7-18.8,131.2-34.9,195.6-48.2c51.2,42.8,100.9,87.5,149,133.8
	c48.3,46.5,95,94.5,140.2,143.9c-11.7,66.4-25.6,132.4-41.9,197.8l0,0c-16.1,65.1-34.3,129.5-54.7,193.4
	c-61.7,22.6-126,43.5-192.3,62.5c-66,18.9-130.8,35.3-193.8,49c-51.9-42.9-102.3-87.9-150.8-134.8
	C957.3,1333.3,910.7,1284.9,866.1,1234.8z M1688.6,1232.4c10.7-43.1,20.5-86.5,29.3-130l0,0c46.9,56.5,88.8,112.2,124.7,166.2
	c-57.5,31.7-120.7,62.1-188.2,90.5C1666.7,1317,1678,1274.8,1688.6,1232.4z M1656.9,892.8c-30.3-31.6-61.2-62.6-92.7-92.8l0,0
	c-31-29.9-62.6-59.1-94.9-87.5c70.1-10.8,138.3-18.1,203.1-21.6C1670.9,754.5,1665.7,822.3,1656.9,892.8z M1086.9,543.5
	c54.8,33.3,111.1,71.9,168,114.9c-84.7,20-168.3,44-250.7,71.8C1029.8,664,1057.5,601.5,1086.9,543.5z M524.2,425.1
	c59.2-61.4,232.9-47.9,440.4,51.6c13.3,6.4,26.7,13.2,40.3,20.3c-42.7,83.8-81.9,176.6-116.6,275.4
	c-97.1,37.8-188.3,80.1-270.4,125.2c-11.6-20.1-22.7-40.5-33.4-61.2l0,0C486.2,644.1,468.6,482.8,524.2,425.1z M739.2,1565.3
	c-19,0-38.1-0.4-57.1-1.4c-113.6-5.7-212.1-27.2-285.1-60.5c-65.5-30-105-67.1-115.4-103.4c-22.1-77.2,64.8-208.7,237.6-330.8
	c21.7-15.3,43.8-29.9,66.4-43.9c51.3,78.7,112,159,180.2,238.3C749.9,1368.4,740.9,1470.2,739.2,1565.3z M1348.6,1837.4
	c-61.7,95.5-129.5,170.2-194.8,216.7l0,0c-58.7,41.8-110.5,57.4-147.1,48.2c-78-19.4-148.5-160.4-167.9-371.1
	c-2.3-24.9-3.8-49.9-4.7-74.9c92.4-5.7,192.5-19.4,297.7-40.6c82.3,65.8,165.6,124.1,246.6,172.7
	C1368.9,1805.2,1358.9,1821.5,1348.6,1837.4z M1422.8,1705.4c-56.3-34-113.7-73-171.5-116.1c41-10,82.7-21.1,124.8-33.2
	c43.3-12.4,85.7-25.6,127.2-39.6C1478.1,1584.5,1451.1,1647.8,1422.8,1705.4z M2009.2,1673.7c6.9,71.7-5.5,124.4-31.6,151.6
	c-55.7,57.9-213.2,48.5-405.3-39.9c-22-10.1-44.5-21.3-67.3-33.3c41-82.5,78.9-175.7,113.1-276.8c99.9-38.5,192.6-81.1,274.5-126.7
	c9.3,16.3,18.1,32.3,26.2,48.1l0,0C1970.6,1497.8,2001.4,1593.8,2009.2,1673.7z M1956.3,1199.1L1956.3,1199.1
	c-10.5,7.2-21.4,14.3-32.5,21.4c-51.2-77.3-113.3-157.3-184.4-237.9c16.2-103.3,25.4-202.4,27.3-294.4c23.5,0,46.5,0.6,68.8,1.8
	c215.7,11.3,364,76.8,386.1,153.8C2245.1,925.8,2146.3,1069.3,1956.3,1199.1z"/>
<rect x="178.5" y="1413.3" transform="matrix(0.9613 -0.2756 0.2756 0.9613 -385.6576 107.9334)" class="st4" width="25.4" height="25.4"/>
<rect x="271.2" y="1386.7" transform="matrix(0.9613 -0.2756 0.2756 0.9613 -374.7325 132.4716)" class="st4" width="25.4" height="25.4"/>
<rect x="751.6" y="1249" transform="matrix(0.9613 -0.2756 0.2756 0.9613 -318.1596 259.5363)" class="st4" width="25.4" height="25.4"/>
<rect x="572.1" y="1017.7" transform="matrix(0.9613 -0.2756 0.2756 0.9613 -261.3634 201.099)" class="st4" width="25.4" height="25.4"/>
<rect x="656.6" y="966.9" transform="matrix(0.9613 -0.2756 0.2756 0.9613 -244.09 222.4451)" class="st4" width="25.4" height="25.4"/>
<rect x="774.1" y="1130.9" transform="matrix(0.9613 -0.2756 0.2756 0.9613 -284.739 261.1706)" class="st4" width="25.4" height="25.4"/>
<rect x="834.9" y="880.7" transform="matrix(0.9613 -0.2756 0.2756 0.9613 -213.4073 268.2289)" class="st4" width="25.4" height="25.4"/>
<rect x="877.7" y="757.1" transform="matrix(0.9613 -0.2756 0.2756 0.9613 -177.6855 275.237)" class="st4" width="25.4" height="25.4"/>
<rect x="993.6" y="484.4" transform="matrix(0.9613 -0.2756 0.2756 0.9613 -98.0495 296.6356)" class="st4" width="25.4" height="25.4"/>
<rect x="1074" y="533" transform="matrix(0.9613 -0.2756 0.2756 0.9613 -108.3098 320.6733)" class="st4" width="25.4" height="25.4"/>
<rect x="990.9" y="715.8" transform="matrix(0.9613 -0.2756 0.2756 0.9613 -161.9158 304.8394)" class="st4" width="25.4" height="25.4"/>
<rect x="1243.9" y="645.8" transform="matrix(0.9613 -0.2756 0.2756 0.9613 -132.8329 371.8715)" class="st4" width="25.4" height="25.4"/>
<rect x="950.1" y="835" transform="matrix(0.9613 -0.2756 0.2756 0.9613 -196.3712 298.212)" class="st4" width="25.4" height="25.4"/>
<rect x="1342.6" y="722.1" transform="matrix(0.9613 -0.2756 0.2756 0.9613 -150.0218 402.0409)" class="st4" width="25.4" height="25.4"/>
<rect x="604.7" y="884.5" transform="matrix(0.9613 -0.2756 0.2756 0.9613 -223.394 204.9432)" class="st4" width="25.4" height="25.4"/>
<rect x="520.8" y="930.2" transform="matrix(0.9613 -0.2756 0.2756 0.9613 -239.2459 183.5735)" class="st4" width="25.4" height="25.4"/>
<rect x="457.2" y="338.4" transform="matrix(0.9613 -0.2756 0.2756 0.9613 -78.5872 143.1218)" class="st4" width="25.4" height="25.4"/>
<rect x="1492.5" y="34.7" transform="matrix(0.9613 -0.2756 0.2756 0.9613 45.2372 416.7194)" class="st4" width="25.4" height="25.4"/>
<rect x="1480.4" y="129.7" transform="matrix(0.9613 -0.2756 0.2756 0.9613 18.5809 417.0703)" class="st4" width="25.4" height="25.4"/>
<rect x="1359.9" y="618.5" transform="matrix(0.9613 -0.2756 0.2756 0.9613 -120.7986 402.8017)" class="st4" width="25.4" height="25.4"/>
<rect x="1118.9" y="446.4" transform="matrix(0.9613 -0.2756 0.2756 0.9613 -82.7213 329.6946)" class="st4" width="25.4" height="25.4"/>
<rect x="1656.5" y="582.6" transform="matrix(0.9613 -0.2756 0.2756 0.9613 -99.4394 483.1445)" class="st4" width="25.4" height="25.4"/>
<rect x="1643.4" y="878.8" transform="matrix(0.9613 -0.2756 0.2756 0.9613 -181.5828 491.0154)" class="st4" width="25.4" height="25.4"/>
<rect x="1660" y="685.8" transform="matrix(0.9613 -0.2756 0.2756 0.9613 -127.7234 488.1201)" class="st4" width="25.4" height="25.4"/>
<rect x="1451" y="700.9" transform="matrix(0.9613 -0.2756 0.2756 0.9613 -139.984 431.0874)" class="st4" width="25.4" height="25.4"/>
<rect x="1430.3" y="1055.2" transform="matrix(0.9613 -0.2756 0.2756 0.9613 -238.4456 439.1245)" class="st4" width="25.4" height="25.4"/>
<rect x="1048.6" y="1164.8" transform="matrix(0.9613 -0.2756 0.2756 0.9613 -283.4394 338.135)" class="st4" width="25.4" height="25.4"/>
<rect x="1187" y="918.4" transform="matrix(0.9613 -0.2756 0.2756 0.9613 -210.1831 366.7615)" class="st4" width="25.4" height="25.4"/>
<rect x="1295.7" y="1298.7" transform="matrix(0.9613 -0.2756 0.2756 0.9613 -310.7969 411.4357)" class="st4" width="25.4" height="25.4"/>
<rect x="1703.8" y="1087.8" transform="matrix(0.9613 -0.2756 0.2756 0.9613 -236.8325 515.7665)" class="st4" width="25.4" height="25.4"/>
<rect x="1828.3" y="1254.2" transform="matrix(0.9613 -0.2756 0.2756 0.9613 -277.8843 556.53)" class="st4" width="25.4" height="25.4"/>
<rect x="1643.5" y="1345.1" transform="matrix(0.9613 -0.2756 0.2756 0.9613 -310.114 509.1193)" class="st4" width="25.4" height="25.4"/>
<rect x="1143.9" y="1501.7" transform="matrix(0.9613 -0.2756 0.2756 0.9613 -372.6248 377.4773)" class="st4" width="25.4" height="25.4"/>
<rect x="1022.1" y="1523.9" transform="matrix(0.9613 -0.2756 0.2756 0.9613 -383.4451 344.7572)" class="st4" width="25.4" height="25.4"/>
<rect x="838.3" y="1348.2" transform="matrix(0.9613 -0.2756 0.2756 0.9613 -342.1555 287.2825)" class="st4" width="25.4" height="25.4"/>
<rect x="824.4" y="1548.1" transform="matrix(0.9613 -0.2756 0.2756 0.9613 -397.7806 291.2077)" class="st4" width="25.4" height="25.4"/>
<rect x="730.1" y="1549.9" transform="matrix(0.9613 -0.2756 0.2756 0.9613 -401.9266 265.2661)" class="st4" width="25.4" height="25.4"/>
<rect x="1913.7" y="1206.9" transform="matrix(0.9613 -0.2756 0.2756 0.9613 -261.5489 578.2328)" class="st4" width="25.4" height="25.4"/>
<rect x="1528.9" y="1386.5" transform="matrix(0.9613 -0.2756 0.2756 0.9613 -325.9659 479.127)" class="st4" width="25.4" height="25.4"/>
<rect x="1607.4" y="1466.7" transform="matrix(0.9613 -0.2756 0.2756 0.9613 -345.0179 503.8798)" class="st4" width="25.4" height="25.4"/>
<rect x="1880.4" y="1339.1" transform="matrix(0.9613 -0.2756 0.2756 0.9613 -299.2726 574.1878)" class="st4" width="25.4" height="25.4"/>
<rect x="1964.3" y="1814.8" transform="matrix(0.9613 -0.2756 0.2756 0.9613 -427.1469 615.7344)" class="st4" width="25.4" height="25.4"/>
<rect x="2038.1" y="1880.7" transform="matrix(0.9613 -0.2756 0.2756 0.9613 -442.4526 638.6364)" class="st4" width="25.4" height="25.4"/>
<rect x="1492.8" y="1742.9" transform="matrix(0.9613 -0.2756 0.2756 0.9613 -425.5862 482.9878)" class="st4" width="25.4" height="25.4"/>
<rect x="1493.7" y="1506.4" transform="matrix(0.9613 -0.2756 0.2756 0.9613 -360.3666 474.0596)" class="st4" width="25.4" height="25.4"/>
<rect x="1407.8" y="1696.8" transform="matrix(0.9613 -0.2756 0.2756 0.9613 -416.183 457.7778)" class="st4" width="25.4" height="25.4"/>
<rect x="1238.5" y="1575.6" transform="matrix(0.9613 -0.2756 0.2756 0.9613 -389.334 406.3972)" class="st4" width="25.4" height="25.4"/>
<rect x="1122" y="1601.4" transform="matrix(0.9613 -0.2756 0.2756 0.9613 -400.9615 375.2858)" class="st4" width="25.4" height="25.4"/>
<rect x="1364.3" y="1776.7" transform="matrix(0.9613 -0.2756 0.2756 0.9613 -439.8948 448.8654)" class="st4" width="25.4" height="25.4"/>
<rect x="996.3" y="2088.1" transform="matrix(0.9613 -0.2756 0.2756 0.9613 -539.9746 359.5135)" class="st4" width="25.4" height="25.4"/>
<rect x="977.2" y="2181.9" transform="matrix(0.9613 -0.2756 0.2756 0.9613 -566.5785 357.8606)" class="st4" width="25.4" height="25.4"/>
<rect x="728.3" y="1646.4" transform="matrix(0.9613 -0.2756 0.2756 0.9613 -428.6008 268.5196)" class="st4" width="25.4" height="25.4"/>
<rect x="823.3" y="1645.6" transform="matrix(0.9613 -0.2756 0.2756 0.9613 -424.7005 294.662)" class="st4" width="25.4" height="25.4"/>
<rect x="1760.2" y="675.3" transform="matrix(0.9613 -0.2756 0.2756 0.9613 -120.968 515.3374)" class="st4" width="25.4" height="25.4"/>
<rect x="1755.4" y="580.6" transform="matrix(0.9613 -0.2756 0.2756 0.9613 -95.0382 510.3435)" class="st4" width="25.4" height="25.4"/>
<rect x="1038.6" y="400.3" transform="matrix(0.9613 -0.2756 0.2756 0.9613 -73.1139 305.7648)" class="st4" width="25.4" height="25.4"/>
<rect x="855.7" y="1219.1" transform="matrix(0.9613 -0.2756 0.2756 0.9613 -305.8986 287.075)" class="st4" width="25.4" height="25.4"/>
<rect x="1623.7" y="998.9" transform="matrix(0.9613 -0.2756 0.2756 0.9613 -215.4409 490.2463)" class="st4" width="25.4" height="25.4"/>
<rect x="1729.9" y="968.4" transform="matrix(0.9613 -0.2756 0.2756 0.9613 -202.9308 518.3444)" class="st4" width="25.4" height="25.4"/>
<rect x="2210.3" y="830.7" transform="matrix(0.9613 -0.2756 0.2756 0.9613 -146.358 645.4091)" class="st4" width="25.4" height="25.4"/>
<rect x="2301.9" y="804.4" transform="matrix(0.9613 -0.2756 0.2756 0.9613 -135.5688 669.6422)" class="st4" width="25.4" height="25.4"/>
<path class="st3" d="M1197.3,932.5c104.6-30,213.7,30.5,243.7,135.1s-30.5,213.7-135.1,243.7s-213.7-30.5-243.7-135.1
	S1092.7,962.5,1197.3,932.5"/>
<line class="st3" x1="1399.9" y1="918.9" x2="1485.9" y2="1218.9"/>
<ellipse transform="matrix(0.9613 -0.2756 0.2756 0.9613 -198.8175 420.963)" class="st4" cx="1398.2" cy="917.8" rx="15.7" ry="15.7"/>
<circle class="st4" cx="1485.3" cy="1221.5" r="15.7"/>
<g>
	<path class="st5" d="M1537.6,1081.6l-56.6-25.6l24.1,30.2c0.5-0.3,1-0.5,1.6-0.7c4.2-1.2,8.7,1.3,9.9,5.5c1.2,4.2-1.3,8.7-5.5,9.9
		c-4.2,1.2-8.7-1.3-9.9-5.5c-0.6-2.2-0.3-4.4,0.8-6.3l-25.2-29l15,58.2l27.6,15l27.8-25.6L1537.6,1081.6z"/>
	
		<rect x="1524.9" y="1123.1" transform="matrix(0.7571 -0.6533 0.6533 0.7571 -364.6619 1283.036)" class="st5" width="36.6" height="17.7"/>
</g>
</svg>
