<?xml version="1.0" encoding="utf-8"?>
<!-- Generator: Adobe Illustrator 23.1.1, SVG Export Plug-In . SVG Version: 6.00 Build 0)  -->
<svg version="1.1" id="Layer_2_1_" xmlns="http://www.w3.org/2000/svg" xmlns:xlink="http://www.w3.org/1999/xlink" x="0px" y="0px"
	 viewBox="0 0 40 40" style="enable-background:new 0 0 40 40;" xml:space="preserve">
<style type="text/css">
	.st0{fill:#FFFFFF;}
</style>
<g>
	<path class="st0" d="M37.9,20.3c0-2.4-3-4.6-7.5-6c1.1-4.6,0.6-8.3-1.5-9.5c-0.5-0.3-1-0.4-1.6-0.4V6c0.3,0,0.6,0.1,0.8,0.2
		c1,0.6,1.4,2.7,1.1,5.5c-0.1,0.7-0.2,1.4-0.4,2.1c-1.4-0.4-3-0.6-4.6-0.8c-1-1.3-2-2.6-3-3.6C23.6,7.2,25.8,6,27.3,6V4.3l0,0
		c-2,0-4.6,1.4-7.3,3.9c-2.7-2.5-5.3-3.9-7.3-3.9V6c1.5,0,3.7,1.2,6.1,3.4c-1,1.1-2,2.3-3,3.6c-1.6,0.2-3.2,0.4-4.6,0.8
		c-0.2-0.7-0.3-1.4-0.4-2.1c-0.3-2.8,0.1-5,1.1-5.5C12.1,6.1,12.4,6,12.7,6V4.4l0,0c-0.6,0-1.2,0.1-1.6,0.4c-2,1.2-2.5,4.9-1.5,9.5
		c-4.5,1.4-7.5,3.6-7.5,6c0,2.4,3,4.6,7.5,6c-1.1,4.6-0.6,8.3,1.5,9.5c0.5,0.3,1,0.4,1.6,0.4c2,0,4.6-1.4,7.3-3.9
		c2.7,2.5,5.3,3.9,7.3,3.9c0.6,0,1.2-0.1,1.6-0.4c2-1.2,2.5-4.9,1.5-9.5C35,24.9,37.9,22.6,37.9,20.3z M28.4,15.4
		c-0.3,0.9-0.6,1.9-1,2.9c-0.3-0.6-0.6-1.2-1-1.8c-0.3-0.6-0.7-1.2-1.1-1.7C26.5,15,27.5,15.2,28.4,15.4z M25.1,23.2
		c-0.6,1-1.2,1.9-1.8,2.8c-1.1,0.1-2.2,0.1-3.3,0.1c-1.1,0-2.2-0.1-3.3-0.1c-0.6-0.9-1.2-1.8-1.8-2.8c-0.6-1-1.1-1.9-1.5-2.9
		c0.5-1,1-2,1.5-2.9c0.6-1,1.2-1.9,1.8-2.8c1.1-0.1,2.2-0.1,3.3-0.1c1.1,0,2.2,0.1,3.3,0.1c0.6,0.9,1.2,1.8,1.8,2.8
		c0.6,1,1.1,1.9,1.5,2.9C26.2,21.3,25.7,22.2,25.1,23.2z M27.5,22.2c0.4,1,0.7,2,1,2.9c-1,0.2-2,0.4-3,0.6c0.4-0.6,0.7-1.1,1.1-1.7
		C26.8,23.4,27.2,22.8,27.5,22.2z M20.1,30c-0.7-0.7-1.4-1.5-2-2.3c0.7,0,1.3,0.1,2,0.1c0.7,0,1.4,0,2-0.1
		C21.4,28.5,20.7,29.3,20.1,30z M14.6,25.7c-1-0.2-2-0.3-3-0.6c0.3-0.9,0.6-1.9,1-2.9c0.3,0.6,0.6,1.2,1,1.8
		C13.9,24.6,14.3,25.2,14.6,25.7z M20,10.5c0.7,0.7,1.4,1.5,2,2.3c-0.7,0-1.3-0.1-2-0.1c-0.7,0-1.4,0-2,0.1
		C18.7,12,19.4,11.2,20,10.5z M14.6,14.8c-0.4,0.6-0.7,1.1-1.1,1.7c-0.3,0.6-0.6,1.2-0.9,1.8c-0.4-1-0.7-2-1-2.9
		C12.6,15.2,13.6,15,14.6,14.8z M8,24c-2.6-1.1-4.3-2.5-4.3-3.7c0-1.1,1.7-2.6,4.3-3.7c0.6-0.3,1.3-0.5,2-0.7c0.4,1.4,1,2.9,1.6,4.4
		c-0.7,1.5-1.2,3-1.6,4.4C9.3,24.5,8.7,24.2,8,24z M12,34.4c-1-0.6-1.4-2.7-1.1-5.5c0.1-0.7,0.2-1.4,0.4-2.1c1.4,0.4,3,0.6,4.6,0.8
		c1,1.3,2,2.6,3,3.6c-2.4,2.2-4.6,3.4-6.1,3.4C12.4,34.6,12.2,34.5,12,34.4z M29.3,28.8c0.3,2.8-0.1,5-1.1,5.5
		c-0.2,0.1-0.5,0.2-0.8,0.2c-1.5,0-3.7-1.2-6.1-3.4c1-1.1,2-2.3,3-3.6c1.6-0.2,3.2-0.4,4.6-0.8C29,27.5,29.2,28.2,29.3,28.8z
		 M32.1,24c-0.6,0.3-1.3,0.5-2,0.7c-0.4-1.4-1-2.9-1.6-4.4c0.7-1.5,1.2-3,1.6-4.4c0.7,0.2,1.4,0.5,2,0.7c2.6,1.1,4.3,2.5,4.3,3.7
		C36.3,21.4,34.6,22.9,32.1,24z"/>
	<path class="st0" d="M12.7,4.4L12.7,4.4L12.7,4.4z"/>
	<circle class="st0" cx="20" cy="20.3" r="3.3"/>
	<path class="st0" d="M27.3,4.4L27.3,4.4L27.3,4.4z"/>
</g>
</svg>
