<?xml version="1.0" encoding="utf-8"?>
<!-- Generator: Adobe Illustrator 23.1.1, SVG Export Plug-In . SVG Version: 6.00 Build 0)  -->
<svg version="1.1" id="Layer_1" xmlns:rdf="http://www.w3.org/1999/02/22-rdf-syntax-ns#"
	 xmlns="http://www.w3.org/2000/svg" xmlns:xlink="http://www.w3.org/1999/xlink" x="0px" y="0px" viewBox="0 0 40 40"
	 style="enable-background:new 0 0 40 40;" xml:space="preserve">
<style type="text/css">
	.st0{fill-rule:evenodd;clip-rule:evenodd;fill:#FFFFFF;}
</style>
<g transform="matrix(1.0755 0 0 1.0755 -3.5103 -1.6684)">
	<path class="st0" d="M21.8,6.8c3.5,0,6.6,1.3,9,3.5c-1.2,0-2.3,0.7-2.4,2.2c-0.1,3.2,3.8,3.9,1.7,10.3l-1.7,5.3l-4.7-14
		c-0.1-0.2,0-0.3,0.3-0.3h1.3c0.1,0,0.1-0.1,0.1-0.1v-0.8c0-0.1-0.1-0.1-0.1-0.1c-2.5,0.1-5.1,0.1-7.6,0c-0.1,0-0.1,0.1-0.1,0.1v0.8
		c0,0.1,0.1,0.1,0.1,0.1h1.4c0.3,0,0.4,0.1,0.5,0.3l2,5.3l-2.9,8.9l-4.8-14.2c-0.1-0.2,0-0.3,0.2-0.3h1.5c0.1,0,0.1-0.1,0.1-0.1
		v-0.8c0-0.1-0.1-0.1-0.1-0.1c-1.6,0.1-3.2,0.1-4.7,0.1C13.1,9.3,17.2,6.8,21.8,6.8L21.8,6.8L21.8,6.8z M33.5,13.8
		c1,1.9,1.6,4,1.6,6.3c0,5-2.8,9.4-6.9,11.7l4.1-11.7C33,18.2,33.6,15.8,33.5,13.8L33.5,13.8L33.5,13.8z M26.3,32.7
		c-1.4,0.5-2.9,0.8-4.4,0.8c-1.3,0-2.6-0.2-3.9-0.6l4.1-11.7L26.3,32.7L26.3,32.7L26.3,32.7z M16.2,32.1c-4.5-2.1-7.6-6.7-7.6-12
		c0-2,0.4-3.8,1.2-5.5L16.2,32.1L16.2,32.1L16.2,32.1z M21.8,5.6c8,0,14.5,6.5,14.5,14.5s-6.5,14.5-14.5,14.5S7.3,28.2,7.3,20.1
		S13.8,5.6,21.8,5.6z M21.8,4.7c8.5,0,15.5,6.9,15.5,15.5s-6.9,15.5-15.5,15.5S6.4,28.7,6.4,20.1S13.3,4.7,21.8,4.7L21.8,4.7z"/>
</g>
</svg>
